<?xml version="1.0" standalone="no"?>
<!DOCTYPE svg PUBLIC "-//W3C//DTD SVG 20010904//EN"
 "http://www.w3.org/TR/2001/REC-SVG-20010904/DTD/svg10.dtd">
<svg version="1.0" xmlns="http://www.w3.org/2000/svg"
 width="800.000000pt" height="858.000000pt" viewBox="0 0 800.000000 858.000000"
 preserveAspectRatio="xMidYMid meet">

<g transform="translate(0.000000,858.000000) scale(0.100000,-0.100000)"
fill="#000000" stroke="none">
<path d="M1705 8573 c-57 -8 -139 -35 -196 -63 -85 -43 -163 -104 -414 -325
-38 -34 -80 -68 -93 -77 -61 -41 -232 -201 -317 -297 -360 -405 -574 -873
-656 -1436 -17 -118 -25 -399 -17 -573 54 -1118 734 -2408 1998 -3787 122
-134 550 -557 674 -666 734 -651 1418 -1053 2106 -1239 695 -187 1405 -127
1995 167 230 115 429 253 605 418 41 39 145 132 230 207 175 153 231 210 284
290 118 178 116 394 -7 610 -65 113 -159 228 -298 363 -151 147 -549 489 -704
605 -489 367 -885 427 -1237 187 -109 -74 -337 -275 -518 -456 -158 -158 -215
-201 -328 -247 -417 -168 -1027 196 -1793 1071 -474 542 -765 987 -882 1350
-86 268 -73 496 38 671 52 82 132 157 265 251 63 44 142 104 175 133 33 28
103 88 155 133 197 171 280 270 345 411 63 137 82 314 51 487 -31 170 -134
416 -274 649 -101 170 -266 428 -359 565 -230 337 -432 522 -633 579 -62 17
-150 26 -195 19z"/>
</g>
</svg>
